STARTFONT 2.1
COMMENT Font grabbed from the X server.
FONT -Misc-Termsyn-Medium-R-Normal--12-87-100-100-C-70-ISO8859-1
SIZE 8 100 100
FONTBOUNDINGBOX 10 12 -1 -2
STARTPROPERTIES 24
FONTNAME_REGISTRY ""
FOUNDRY "Misc"
FAMILY_NAME "Termsyn"
WEIGHT_NAME "Medium"
SLANT "R"
SETWIDTH_NAME "Normal"
ADD_STYLE_NAME ""
PIXEL_SIZE 12
POINT_SIZE 87
RESOLUTION_X 100
RESOLUTION_Y 100
SPACING "C"
AVERAGE_WIDTH 70
CHARSET_REGISTRY "ISO8859"
CHARSET_ENCODING "1"
COPYRIGHT "GPLv2"
CAP_HEIGHT 7
X_HEIGHT 5
WEIGHT 10
QUAD_WIDTH 7
_GBDFED_INFO "Edited with gbdfed 1.6."
RESOLUTION 138
FONT_ASCENT 10
FONT_DESCENT 2
ENDPROPERTIES
CHARS 354
STARTCHAR char0
ENCODING 0
SWIDTH 900 0
DWIDTH 10 0
BBX 10 12 -1 -2
BITMAP
0000
0000
3E00
2200
2200
2200
2200
2200
2200
3E00
0000
0000
ENDCHAR
STARTCHAR char1
ENCODING 1
SWIDTH 900 0
DWIDTH 10 0
BBX 10 12 -1 -2
BITMAP
0000
0000
3E00
2200
2200
2200
2200
2200
2200
3E00
0000
0000
ENDCHAR
STARTCHAR char2
ENCODING 2
SWIDTH 900 0
DWIDTH 10 0
BBX 10 12 -1 -2
BITMAP
5500
2A00
5500
2A00
5500
2A00
5500
2A00
5500
2A00
5500
2A00
ENDCHAR
STARTCHAR char3
ENCODING 3
SWIDTH 900 0
DWIDTH 10 0
BBX 10 12 -1 -2
BITMAP
0000
0000
3E00
2200
2200
2200
2200
2200
2200
3E00
0000
0000
ENDCHAR
STARTCHAR char4
ENCODING 4
SWIDTH 900 0
DWIDTH 10 0
BBX 10 12 -1 -2
BITMAP
0000
0000
3E00
2200
2200
2200
2200
2200
2200
3E00
0000
0000
ENDCHAR
STARTCHAR char5
ENCODING 5
SWIDTH 900 0
DWIDTH 10 0
BBX 10 12 -1 -2
BITMAP
0000
0000
3E00
2200
2200
2200
2200
2200
2200
3E00
0000
0000
ENDCHAR
STARTCHAR char6
ENCODING 6
SWIDTH 900 0
DWIDTH 10 0
BBX 10 12 -1 -2
BITMAP
0000
0000
3E00
2200
2200
2200
2200
2200
2200
3E00
0000
0000
ENDCHAR
STARTCHAR char7
ENCODING 7
SWIDTH 900 0
DWIDTH 10 0
BBX 10 12 -1 -2
BITMAP
0000
0000
3E00
2200
2200
2200
2200
2200
2200
3E00
0000
0000
ENDCHAR
STARTCHAR char8
ENCODING 8
SWIDTH 900 0
DWIDTH 10 0
BBX 10 12 -1 -2
BITMAP
0000
0000
3E00
2200
2200
2200
2200
2200
2200
3E00
0000
0000
ENDCHAR
STARTCHAR char9
ENCODING 9
SWIDTH 900 0
DWIDTH 10 0
BBX 10 12 -1 -2
BITMAP
0000
0000
3E00
2200
2200
2200
2200
2200
2200
3E00
0000
0000
ENDCHAR
STARTCHAR char10
ENCODING 10
SWIDTH 900 0
DWIDTH 10 0
BBX 10 12 -1 -2
BITMAP
0000
0000
3E00
2200
2200
2200
2200
2200
2200
3E00
0000
0000
ENDCHAR
STARTCHAR char11
ENCODING 11
SWIDTH 900 0
DWIDTH 10 0
BBX 10 12 -1 -2
BITMAP
0800
0800
0800
0800
0800
0800
7800
0000
0000
0000
0000
0000
ENDCHAR
STARTCHAR char12
ENCODING 12
SWIDTH 900 0
DWIDTH 10 0
BBX 10 12 -1 -2
BITMAP
0000
0000
0000
0000
0000
0000
7800
0800
0800
0800
0800
0800
ENDCHAR
STARTCHAR char13
ENCODING 13
SWIDTH 900 0
DWIDTH 10 0
BBX 10 12 -1 -2
BITMAP
0000
0000
0000
0000
0000
0000
0F00
0800
0800
0800
0800
0800
ENDCHAR
STARTCHAR char14
ENCODING 14
SWIDTH 900 0
DWIDTH 10 0
BBX 10 12 -1 -2
BITMAP
0800
0800
0800
0800
0800
0800
0F00
0000
0000
0000
0000
0000
ENDCHAR
STARTCHAR char15
ENCODING 15
SWIDTH 900 0
DWIDTH 10 0
BBX 10 12 -1 -2
BITMAP
0800
0800
0800
0800
0800
0800
7F00
0800
0800
0800
0800
0800
ENDCHAR
STARTCHAR char16
ENCODING 16
SWIDTH 900 0
DWIDTH 10 0
BBX 10 12 -1 -2
BITMAP
0000
0000
0000
0000
0000
0000
0000
0000
0000
0000
0000
0000
ENDCHAR
STARTCHAR char17
ENCODING 17
SWIDTH 900 0
DWIDTH 10 0
BBX 10 12 -1 -2
BITMAP
0000
0000
0000
7F00
0000
0000
0000
0000
0000
0000
0000
0000
ENDCHAR
STARTCHAR char18
ENCODING 18
SWIDTH 900 0
DWIDTH 10 0
BBX 10 12 -1 -2
BITMAP
0000
0000
0000
0000
0000
0000
7F00
0000
0000
0000
0000
0000
ENDCHAR
STARTCHAR char19
ENCODING 19
SWIDTH 900 0
DWIDTH 10 0
BBX 10 12 -1 -2
BITMAP
0000
0000
0000
0000
0000
0000
0000
0000
0000
7F00
0000
0000
ENDCHAR
STARTCHAR char20
ENCODING 20
SWIDTH 900 0
DWIDTH 10 0
BBX 10 12 -1 -2
BITMAP
0000
0000
0000
0000
0000
0000
0000
0000
0000
0000
0000
0000
ENDCHAR
STARTCHAR char21
ENCODING 21
SWIDTH 900 0
DWIDTH 10 0
BBX 10 12 -1 -2
BITMAP
0800
0800
0800
0800
0800
0800
0F00
0800
0800
0800
0800
0800
ENDCHAR
STARTCHAR char22
ENCODING 22
SWIDTH 900 0
DWIDTH 10 0
BBX 10 12 -1 -2
BITMAP
0800
0800
0800
0800
0800
0800
7800
0800
0800
0800
0800
0800
ENDCHAR
STARTCHAR char23
ENCODING 23
SWIDTH 900 0
DWIDTH 10 0
BBX 10 12 -1 -2
BITMAP
0800
0800
0800
0800
0800
0800
7F00
0000
0000
0000
0000
0000
ENDCHAR
STARTCHAR char24
ENCODING 24
SWIDTH 900 0
DWIDTH 10 0
BBX 10 12 -1 -2
BITMAP
0000
0000
0000
0000
0000
0000
7F00
0800
0800
0800
0800
0800
ENDCHAR
STARTCHAR char25
ENCODING 25
SWIDTH 900 0
DWIDTH 10 0
BBX 10 12 -1 -2
BITMAP
0800
0800
0800
0800
0800
0800
0800
0800
0800
0800
0800
0800
ENDCHAR
STARTCHAR char26
ENCODING 26
SWIDTH 900 0
DWIDTH 10 0
BBX 10 12 -1 -2
BITMAP
0000
0000
3E00
2200
2200
2200
2200
2200
2200
3E00
0000
0000
ENDCHAR
STARTCHAR char27
ENCODING 27
SWIDTH 900 0
DWIDTH 10 0
BBX 10 12 -1 -2
BITMAP
0000
0000
3E00
2200
2200
2200
2200
2200
2200
3E00
0000
0000
ENDCHAR
STARTCHAR char28
ENCODING 28
SWIDTH 900 0
DWIDTH 10 0
BBX 10 12 -1 -2
BITMAP
0000
0000
3E00
2200
2200
2200
2200
2200
2200
3E00
0000
0000
ENDCHAR
STARTCHAR char29
ENCODING 29
SWIDTH 900 0
DWIDTH 10 0
BBX 10 12 -1 -2
BITMAP
0000
0000
3E00
2200
2200
2200
2200
2200
2200
3E00
0000
0000
ENDCHAR
STARTCHAR char30
ENCODING 30
SWIDTH 900 0
DWIDTH 10 0
BBX 10 12 -1 -2
BITMAP
0000
0000
3E00
2200
2200
2200
2200
2200
2200
3E00
0000
0000
ENDCHAR
STARTCHAR char31
ENCODING 31
SWIDTH 900 0
DWIDTH 10 0
BBX 10 12 -1 -2
BITMAP
0000
0000
3E00
2200
2200
2200
2200
2200
2200
3E00
0000
0000
ENDCHAR
STARTCHAR char32
ENCODING 32
SWIDTH 900 0
DWIDTH 10 0
BBX 10 12 -1 -2
BITMAP
0000
0000
0000
0000
0000
0000
0000
0000
0000
0000
0000
0000
ENDCHAR
STARTCHAR char33
ENCODING 33
SWIDTH 900 0
DWIDTH 10 0
BBX 10 12 -1 -2
BITMAP
0000
0000
0800
0800
0800
0800
0800
0000
0800
0800
0000
0000
ENDCHAR
STARTCHAR char34
ENCODING 34
SWIDTH 900 0
DWIDTH 10 0
BBX 10 12 -1 -2
BITMAP
0000
0000
1400
1400
1400
0000
0000
0000
0000
0000
0000
0000
ENDCHAR
STARTCHAR char35
ENCODING 35
SWIDTH 900 0
DWIDTH 10 0
BBX 10 12 -1 -2
BITMAP
0000
0000
0000
1400
1400
3E00
1400
3E00
1400
1400
0000
0000
ENDCHAR
STARTCHAR char36
ENCODING 36
SWIDTH 900 0
DWIDTH 10 0
BBX 10 12 -1 -2
BITMAP
0000
0000
0800
1C00
2A00
2800
1C00
0A00
2A00
1C00
0800
0000
ENDCHAR
STARTCHAR char37
ENCODING 37
SWIDTH 900 0
DWIDTH 10 0
BBX 10 12 -1 -2
BITMAP
0000
0000
2000
5200
5400
2800
1400
2A00
4A00
0400
0000
0000
ENDCHAR
STARTCHAR char38
ENCODING 38
SWIDTH 900 0
DWIDTH 10 0
BBX 10 12 -1 -2
BITMAP
0000
0000
1000
2800
2800
1000
2A00
2400
2400
1A00
0000
0000
ENDCHAR
STARTCHAR char39
ENCODING 39
SWIDTH 900 0
DWIDTH 10 0
BBX 10 12 -1 -2
BITMAP
0000
0000
0800
0800
0800
0000
0000
0000
0000
0000
0000
0000
ENDCHAR
STARTCHAR char40
ENCODING 40
SWIDTH 900 0
DWIDTH 10 0
BBX 10 12 -1 -2
BITMAP
0000
0000
0200
0400
0800
0800
0800
0800
0800
0400
0200
0000
ENDCHAR
STARTCHAR char41
ENCODING 41
SWIDTH 900 0
DWIDTH 10 0
BBX 10 12 -1 -2
BITMAP
0000
0000
2000
1000
0800
0800
0800
0800
0800
1000
2000
0000
ENDCHAR
STARTCHAR char42
ENCODING 42
SWIDTH 900 0
DWIDTH 10 0
BBX 10 12 -1 -2
BITMAP
0000
0000
0000
0000
0800
2A00
1C00
2A00
0800
0000
0000
0000
ENDCHAR
STARTCHAR char43
ENCODING 43
SWIDTH 900 0
DWIDTH 10 0
BBX 10 12 -1 -2
BITMAP
0000
0000
0000
0000
0800
0800
3E00
0800
0800
0000
0000
0000
ENDCHAR
STARTCHAR char44
ENCODING 44
SWIDTH 900 0
DWIDTH 10 0
BBX 10 12 -1 -2
BITMAP
0000
0000
0000
0000
0000
0000
0000
0000
0800
0800
1000
0000
ENDCHAR
STARTCHAR char45
ENCODING 45
SWIDTH 900 0
DWIDTH 10 0
BBX 10 12 -1 -2
BITMAP
0000
0000
0000
0000
0000
0000
3E00
0000
0000
0000
0000
0000
ENDCHAR
STARTCHAR char46
ENCODING 46
SWIDTH 900 0
DWIDTH 10 0
BBX 10 12 -1 -2
BITMAP
0000
0000
0000
0000
0000
0000
0000
0000
0800
0800
0000
0000
ENDCHAR
STARTCHAR char47
ENCODING 47
SWIDTH 900 0
DWIDTH 10 0
BBX 10 12 -1 -2
BITMAP
0000
0000
0000
0200
0200
0400
0400
0800
0800
1000
1000
0000
ENDCHAR
STARTCHAR char48
ENCODING 48
SWIDTH 900 0
DWIDTH 10 0
BBX 10 12 -1 -2
BITMAP
0000
0000
0000
1C00
2200
2600
2A00
3200
2200
1C00
0000
0000
ENDCHAR
STARTCHAR char49
ENCODING 49
SWIDTH 900 0
DWIDTH 10 0
BBX 10 12 -1 -2
BITMAP
0000
0000
0000
0800
1800
2800
0800
0800
0800
3E00
0000
0000
ENDCHAR
STARTCHAR char50
ENCODING 50
SWIDTH 900 0
DWIDTH 10 0
BBX 10 12 -1 -2
BITMAP
0000
0000
0000
1C00
2200
0200
0400
0800
1000
3E00
0000
0000
ENDCHAR
STARTCHAR char51
ENCODING 51
SWIDTH 900 0
DWIDTH 10 0
BBX 10 12 -1 -2
BITMAP
0000
0000
0000
1C00
2200
0200
0C00
0200
2200
1C00
0000
0000
ENDCHAR
STARTCHAR char52
ENCODING 52
SWIDTH 900 0
DWIDTH 10 0
BBX 10 12 -1 -2
BITMAP
0000
0000
0000
0400
0C00
1400
2400
3E00
0400
0400
0000
0000
ENDCHAR
STARTCHAR char53
ENCODING 53
SWIDTH 900 0
DWIDTH 10 0
BBX 10 12 -1 -2
BITMAP
0000
0000
0000
3E00
2000
3C00
0200
0200
2200
1C00
0000
0000
ENDCHAR
STARTCHAR char54
ENCODING 54
SWIDTH 900 0
DWIDTH 10 0
BBX 10 12 -1 -2
BITMAP
0000
0000
0000
0C00
1000
2000
3C00
2200
2200
1C00
0000
0000
ENDCHAR
STARTCHAR char55
ENCODING 55
SWIDTH 900 0
DWIDTH 10 0
BBX 10 12 -1 -2
BITMAP
0000
0000
0000
3E00
0200
0400
0400
0800
0800
0800
0000
0000
ENDCHAR
STARTCHAR char56
ENCODING 56
SWIDTH 900 0
DWIDTH 10 0
BBX 10 12 -1 -2
BITMAP
0000
0000
0000
1C00
2200
2200
1C00
2200
2200
1C00
0000
0000
ENDCHAR
STARTCHAR char57
ENCODING 57
SWIDTH 900 0
DWIDTH 10 0
BBX 10 12 -1 -2
BITMAP
0000
0000
0000
1C00
2200
2200
1E00
0200
0400
1800
0000
0000
ENDCHAR
STARTCHAR char58
ENCODING 58
SWIDTH 900 0
DWIDTH 10 0
BBX 10 12 -1 -2
BITMAP
0000
0000
0000
0000
0000
0800
0800
0000
0800
0800
0000
0000
ENDCHAR
STARTCHAR char59
ENCODING 59
SWIDTH 900 0
DWIDTH 10 0
BBX 10 12 -1 -2
BITMAP
0000
0000
0000
0000
0000
0800
0800
0000
0800
0800
1000
0000
ENDCHAR
STARTCHAR char60
ENCODING 60
SWIDTH 900 0
DWIDTH 10 0
BBX 10 12 -1 -2
BITMAP
0000
0000
0000
0200
0400
0800
1000
0800
0400
0200
0000
0000
ENDCHAR
STARTCHAR char61
ENCODING 61
SWIDTH 900 0
DWIDTH 10 0
BBX 10 12 -1 -2
BITMAP
0000
0000
0000
0000
0000
3E00
0000
3E00
0000
0000
0000
0000
ENDCHAR
STARTCHAR char62
ENCODING 62
SWIDTH 900 0
DWIDTH 10 0
BBX 10 12 -1 -2
BITMAP
0000
0000
0000
2000
1000
0800
0400
0800
1000
2000
0000
0000
ENDCHAR
STARTCHAR char63
ENCODING 63
SWIDTH 900 0
DWIDTH 10 0
BBX 10 12 -1 -2
BITMAP
0000
0000
1C00
2200
0200
0400
0800
0000
0800
0800
0000
0000
ENDCHAR
STARTCHAR char64
ENCODING 64
SWIDTH 900 0
DWIDTH 10 0
BBX 10 12 -1 -2
BITMAP
0000
0000
1C00
2200
2600
2A00
2A00
2A00
2600
2000
1E00
0000
ENDCHAR
STARTCHAR char65
ENCODING 65
SWIDTH 900 0
DWIDTH 10 0
BBX 10 12 -1 -2
BITMAP
0000
0000
0000
1C00
2200
2200
3E00
2200
2200
2200
0000
0000
ENDCHAR
STARTCHAR char66
ENCODING 66
SWIDTH 900 0
DWIDTH 10 0
BBX 10 12 -1 -2
BITMAP
0000
0000
0000
3C00
2200
2200
3C00
2200
2200
3C00
0000
0000
ENDCHAR
STARTCHAR char67
ENCODING 67
SWIDTH 900 0
DWIDTH 10 0
BBX 10 12 -1 -2
BITMAP
0000
0000
0000
1C00
2200
2000
2000
2000
2200
1C00
0000
0000
ENDCHAR
STARTCHAR char68
ENCODING 68
SWIDTH 900 0
DWIDTH 10 0
BBX 10 12 -1 -2
BITMAP
0000
0000
0000
3C00
2200
2200
2200
2200
2200
3C00
0000
0000
ENDCHAR
STARTCHAR char69
ENCODING 69
SWIDTH 900 0
DWIDTH 10 0
BBX 10 12 -1 -2
BITMAP
0000
0000
0000
3E00
2000
2000
3C00
2000
2000
3E00
0000
0000
ENDCHAR
STARTCHAR char70
ENCODING 70
SWIDTH 900 0
DWIDTH 10 0
BBX 10 12 -1 -2
BITMAP
0000
0000
0000
3E00
2000
2000
3C00
2000
2000
2000
0000
0000
ENDCHAR
STARTCHAR char71
ENCODING 71
SWIDTH 900 0
DWIDTH 10 0
BBX 10 12 -1 -2
BITMAP
0000
0000
0000
1C00
2200
2000
2E00
2200
2200
1C00
0000
0000
ENDCHAR
STARTCHAR char72
ENCODING 72
SWIDTH 900 0
DWIDTH 10 0
BBX 10 12 -1 -2
BITMAP
0000
0000
0000
2200
2200
2200
3E00
2200
2200
2200
0000
0000
ENDCHAR
STARTCHAR char73
ENCODING 73
SWIDTH 900 0
DWIDTH 10 0
BBX 10 12 -1 -2
BITMAP
0000
0000
0000
3E00
0800
0800
0800
0800
0800
3E00
0000
0000
ENDCHAR
STARTCHAR char74
ENCODING 74
SWIDTH 900 0
DWIDTH 10 0
BBX 10 12 -1 -2
BITMAP
0000
0000
0000
0200
0200
0200
0200
2200
2200
1C00
0000
0000
ENDCHAR
STARTCHAR char75
ENCODING 75
SWIDTH 900 0
DWIDTH 10 0
BBX 10 12 -1 -2
BITMAP
0000
0000
0000
2200
2400
2800
3000
2800
2400
2200
0000
0000
ENDCHAR
STARTCHAR char76
ENCODING 76
SWIDTH 900 0
DWIDTH 10 0
BBX 10 12 -1 -2
BITMAP
0000
0000
0000
2000
2000
2000
2000
2000
2000
3E00
0000
0000
ENDCHAR
STARTCHAR char77
ENCODING 77
SWIDTH 900 0
DWIDTH 10 0
BBX 10 12 -1 -2
BITMAP
0000
0000
0000
2200
3600
2A00
2A00
2200
2200
2200
0000
0000
ENDCHAR
STARTCHAR char78
ENCODING 78
SWIDTH 900 0
DWIDTH 10 0
BBX 10 12 -1 -2
BITMAP
0000
0000
0000
2200
3200
2A00
2600
2200
2200
2200
0000
0000
ENDCHAR
STARTCHAR char79
ENCODING 79
SWIDTH 900 0
DWIDTH 10 0
BBX 10 12 -1 -2
BITMAP
0000
0000
0000
1C00
2200
2200
2200
2200
2200
1C00
0000
0000
ENDCHAR
STARTCHAR char80
ENCODING 80
SWIDTH 900 0
DWIDTH 10 0
BBX 10 12 -1 -2
BITMAP
0000
0000
0000
3C00
2200
2200
3C00
2000
2000
2000
0000
0000
ENDCHAR
STARTCHAR char81
ENCODING 81
SWIDTH 900 0
DWIDTH 10 0
BBX 10 12 -1 -2
BITMAP
0000
0000
0000
1C00
2200
2200
2200
2200
2A00
1C00
0200
0000
ENDCHAR
STARTCHAR char82
ENCODING 82
SWIDTH 900 0
DWIDTH 10 0
BBX 10 12 -1 -2
BITMAP
0000
0000
0000
3C00
2200
2200
3C00
2800
2400
2200
0000
0000
ENDCHAR
STARTCHAR char83
ENCODING 83
SWIDTH 900 0
DWIDTH 10 0
BBX 10 12 -1 -2
BITMAP
0000
0000
0000
1C00
2200
2000
1C00
0200
2200
1C00
0000
0000
ENDCHAR
STARTCHAR char84
ENCODING 84
SWIDTH 900 0
DWIDTH 10 0
BBX 10 12 -1 -2
BITMAP
0000
0000
0000
3E00
0800
0800
0800
0800
0800
0800
0000
0000
ENDCHAR
STARTCHAR char85
ENCODING 85
SWIDTH 900 0
DWIDTH 10 0
BBX 10 12 -1 -2
BITMAP
0000
0000
0000
2200
2200
2200
2200
2200
2200
1C00
0000
0000
ENDCHAR
STARTCHAR char86
ENCODING 86
SWIDTH 900 0
DWIDTH 10 0
BBX 10 12 -1 -2
BITMAP
0000
0000
0000
2200
2200
1400
1400
1400
0800
0800
0000
0000
ENDCHAR
STARTCHAR char87
ENCODING 87
SWIDTH 900 0
DWIDTH 10 0
BBX 10 12 -1 -2
BITMAP
0000
0000
0000
2200
2200
2200
2A00
2A00
3600
2200
0000
0000
ENDCHAR
STARTCHAR char88
ENCODING 88
SWIDTH 900 0
DWIDTH 10 0
BBX 10 12 -1 -2
BITMAP
0000
0000
0000
2200
2200
1400
0800
1400
2200
2200
0000
0000
ENDCHAR
STARTCHAR char89
ENCODING 89
SWIDTH 900 0
DWIDTH 10 0
BBX 10 12 -1 -2
BITMAP
0000
0000
0000
2200
2200
1400
1C00
0800
0800
0800
0000
0000
ENDCHAR
STARTCHAR char90
ENCODING 90
SWIDTH 900 0
DWIDTH 10 0
BBX 10 12 -1 -2
BITMAP
0000
0000
0000
3E00
0200
0400
0800
1000
2000
3E00
0000
0000
ENDCHAR
STARTCHAR char91
ENCODING 91
SWIDTH 900 0
DWIDTH 10 0
BBX 10 12 -1 -2
BITMAP
0000
0000
0E00
0800
0800
0800
0800
0800
0800
0800
0E00
0000
ENDCHAR
STARTCHAR char92
ENCODING 92
SWIDTH 900 0
DWIDTH 10 0
BBX 10 12 -1 -2
BITMAP
0000
0000
0000
2000
2000
1000
1000
0800
0800
0400
0400
0000
ENDCHAR
STARTCHAR char93
ENCODING 93
SWIDTH 900 0
DWIDTH 10 0
BBX 10 12 -1 -2
BITMAP
0000
0000
3800
0800
0800
0800
0800
0800
0800
0800
3800
0000
ENDCHAR
STARTCHAR char94
ENCODING 94
SWIDTH 900 0
DWIDTH 10 0
BBX 10 12 -1 -2
BITMAP
0000
0000
0800
1400
2200
0000
0000
0000
0000
0000
0000
0000
ENDCHAR
STARTCHAR char95
ENCODING 95
SWIDTH 900 0
DWIDTH 10 0
BBX 10 12 -1 -2
BITMAP
0000
0000
0000
0000
0000
0000
0000
0000
0000
0000
7F00
0000
ENDCHAR
STARTCHAR char96
ENCODING 96
SWIDTH 900 0
DWIDTH 10 0
BBX 10 12 -1 -2
BITMAP
0000
0000
1000
0800
0400
0000
0000
0000
0000
0000
0000
0000
ENDCHAR
STARTCHAR char97
ENCODING 97
SWIDTH 900 0
DWIDTH 10 0
BBX 10 12 -1 -2
BITMAP
0000
0000
0000
0000
0000
1C00
0200
1E00
2200
1E00
0000
0000
ENDCHAR
STARTCHAR char98
ENCODING 98
SWIDTH 900 0
DWIDTH 10 0
BBX 10 12 -1 -2
BITMAP
0000
0000
0000
2000
2000
3C00
2200
2200
2200
3C00
0000
0000
ENDCHAR
STARTCHAR char99
ENCODING 99
SWIDTH 900 0
DWIDTH 10 0
BBX 10 12 -1 -2
BITMAP
0000
0000
0000
0000
0000
1E00
2000
2000
2000
1E00
0000
0000
ENDCHAR
STARTCHAR char100
ENCODING 100
SWIDTH 900 0
DWIDTH 10 0
BBX 10 12 -1 -2
BITMAP
0000
0000
0000
0200
0200
1E00
2200
2200
2200
1E00
0000
0000
ENDCHAR
STARTCHAR char101
ENCODING 101
SWIDTH 900 0
DWIDTH 10 0
BBX 10 12 -1 -2
BITMAP
0000
0000
0000
0000
0000
1C00
2200
3E00
2000
1E00
0000
0000
ENDCHAR
STARTCHAR char102
ENCODING 102
SWIDTH 900 0
DWIDTH 10 0
BBX 10 12 -1 -2
BITMAP
0000
0000
0000
0E00
1000
3C00
1000
1000
1000
1000
0000
0000
ENDCHAR
STARTCHAR char103
ENCODING 103
SWIDTH 900 0
DWIDTH 10 0
BBX 10 12 -1 -2
BITMAP
0000
0000
0000
0000
0000
1E00
2200
2200
2200
1E00
0200
1C00
ENDCHAR
STARTCHAR char104
ENCODING 104
SWIDTH 900 0
DWIDTH 10 0
BBX 10 12 -1 -2
BITMAP
0000
0000
0000
2000
2000
3C00
2200
2200
2200
2200
0000
0000
ENDCHAR
STARTCHAR char105
ENCODING 105
SWIDTH 900 0
DWIDTH 10 0
BBX 10 12 -1 -2
BITMAP
0000
0000
0800
0800
0000
3800
0800
0800
0800
3E00
0000
0000
ENDCHAR
STARTCHAR char106
ENCODING 106
SWIDTH 900 0
DWIDTH 10 0
BBX 10 12 -1 -2
BITMAP
0000
0000
0200
0200
0000
0600
0200
0200
0200
2200
2200
1C00
ENDCHAR
STARTCHAR char107
ENCODING 107
SWIDTH 900 0
DWIDTH 10 0
BBX 10 12 -1 -2
BITMAP
0000
0000
0000
2000
2000
2400
2800
3800
2400
2200
0000
0000
ENDCHAR
STARTCHAR char108
ENCODING 108
SWIDTH 900 0
DWIDTH 10 0
BBX 10 12 -1 -2
BITMAP
0000
0000
0000
3800
0800
0800
0800
0800
0800
3E00
0000
0000
ENDCHAR
STARTCHAR char109
ENCODING 109
SWIDTH 900 0
DWIDTH 10 0
BBX 10 12 -1 -2
BITMAP
0000
0000
0000
0000
0000
3C00
2A00
2A00
2A00
2A00
0000
0000
ENDCHAR
STARTCHAR char110
ENCODING 110
SWIDTH 900 0
DWIDTH 10 0
BBX 10 12 -1 -2
BITMAP
0000
0000
0000
0000
0000
3C00
2200
2200
2200
2200
0000
0000
ENDCHAR
STARTCHAR char111
ENCODING 111
SWIDTH 900 0
DWIDTH 10 0
BBX 10 12 -1 -2
BITMAP
0000
0000
0000
0000
0000
1C00
2200
2200
2200
1C00
0000
0000
ENDCHAR
STARTCHAR char112
ENCODING 112
SWIDTH 900 0
DWIDTH 10 0
BBX 10 12 -1 -2
BITMAP
0000
0000
0000
0000
0000
3C00
2200
2200
2200
3C00
2000
2000
ENDCHAR
STARTCHAR char113
ENCODING 113
SWIDTH 900 0
DWIDTH 10 0
BBX 10 12 -1 -2
BITMAP
0000
0000
0000
0000
0000
1E00
2200
2200
2200
1E00
0200
0200
ENDCHAR
STARTCHAR char114
ENCODING 114
SWIDTH 900 0
DWIDTH 10 0
BBX 10 12 -1 -2
BITMAP
0000
0000
0000
0000
0000
2E00
3000
2000
2000
2000
0000
0000
ENDCHAR
STARTCHAR char115
ENCODING 115
SWIDTH 900 0
DWIDTH 10 0
BBX 10 12 -1 -2
BITMAP
0000
0000
0000
0000
0000
1E00
2000
1C00
0200
3C00
0000
0000
ENDCHAR
STARTCHAR char116
ENCODING 116
SWIDTH 900 0
DWIDTH 10 0
BBX 10 12 -1 -2
BITMAP
0000
0000
0000
1000
1000
3C00
1000
1000
1000
0E00
0000
0000
ENDCHAR
STARTCHAR char117
ENCODING 117
SWIDTH 900 0
DWIDTH 10 0
BBX 10 12 -1 -2
BITMAP
0000
0000
0000
0000
0000
2200
2200
2200
2200
1E00
0000
0000
ENDCHAR
STARTCHAR char118
ENCODING 118
SWIDTH 900 0
DWIDTH 10 0
BBX 10 12 -1 -2
BITMAP
0000
0000
0000
0000
0000
2200
2200
1400
1400
0800
0000
0000
ENDCHAR
STARTCHAR char119
ENCODING 119
SWIDTH 900 0
DWIDTH 10 0
BBX 10 12 -1 -2
BITMAP
0000
0000
0000
0000
0000
2200
2A00
2A00
2A00
1C00
0000
0000
ENDCHAR
STARTCHAR char120
ENCODING 120
SWIDTH 900 0
DWIDTH 10 0
BBX 10 12 -1 -2
BITMAP
0000
0000
0000
0000
0000
2200
1400
0800
1400
2200
0000
0000
ENDCHAR
STARTCHAR char121
ENCODING 121
SWIDTH 900 0
DWIDTH 10 0
BBX 10 12 -1 -2
BITMAP
0000
0000
0000
0000
0000
2200
2200
2200
2200
1E00
0200
1C00
ENDCHAR
STARTCHAR char122
ENCODING 122
SWIDTH 900 0
DWIDTH 10 0
BBX 10 12 -1 -2
BITMAP
0000
0000
0000
0000
0000
3E00
0400
0800
1000
3E00
0000
0000
ENDCHAR
STARTCHAR char123
ENCODING 123
SWIDTH 900 0
DWIDTH 10 0
BBX 10 12 -1 -2
BITMAP
0000
0000
0600
0800
0800
0800
1000
0800
0800
0800
0600
0000
ENDCHAR
STARTCHAR char124
ENCODING 124
SWIDTH 900 0
DWIDTH 10 0
BBX 10 12 -1 -2
BITMAP
0000
0000
0800
0800
0800
0800
0800
0800
0800
0800
0800
0000
ENDCHAR
STARTCHAR char125
ENCODING 125
SWIDTH 900 0
DWIDTH 10 0
BBX 10 12 -1 -2
BITMAP
0000
0000
3000
0800
0800
0800
0400
0800
0800
0800
3000
0000
ENDCHAR
STARTCHAR char126
ENCODING 126
SWIDTH 900 0
DWIDTH 10 0
BBX 10 12 -1 -2
BITMAP
0000
0000
1200
2A00
2400
0000
0000
0000
0000
0000
0000
0000
ENDCHAR
STARTCHAR char160
ENCODING 160
SWIDTH 900 0
DWIDTH 10 0
BBX 10 12 -1 -2
BITMAP
0000
0000
0000
0000
0000
0000
0000
0000
0000
0000
0000
0000
ENDCHAR
STARTCHAR char161
ENCODING 161
SWIDTH 900 0
DWIDTH 10 0
BBX 10 12 -1 -2
BITMAP
0000
0000
0800
0800
0000
0800
0800
0800
0800
0800
0000
0000
ENDCHAR
STARTCHAR char162
ENCODING 162
SWIDTH 900 0
DWIDTH 10 0
BBX 10 12 -1 -2
BITMAP
0000
0000
0000
0000
0800
1E00
2800
2800
2800
1E00
0800
0000
ENDCHAR
STARTCHAR char163
ENCODING 163
SWIDTH 900 0
DWIDTH 10 0
BBX 10 12 -1 -2
BITMAP
0000
0000
0000
0C00
1200
1000
3C00
1000
1200
3E00
0000
0000
ENDCHAR
STARTCHAR char164
ENCODING 164
SWIDTH 900 0
DWIDTH 10 0
BBX 10 12 -1 -2
BITMAP
0000
0000
0000
2200
1C00
2200
2200
2200
1C00
2200
0000
0000
ENDCHAR
STARTCHAR char165
ENCODING 165
SWIDTH 900 0
DWIDTH 10 0
BBX 10 12 -1 -2
BITMAP
0000
0000
0000
2200
1400
0800
1C00
0800
1C00
0800
0000
0000
ENDCHAR
STARTCHAR char166
ENCODING 166
SWIDTH 900 0
DWIDTH 10 0
BBX 10 12 -1 -2
BITMAP
0000
0000
0000
0800
0800
0800
0000
0800
0800
0800
0000
0000
ENDCHAR
STARTCHAR char167
ENCODING 167
SWIDTH 900 0
DWIDTH 10 0
BBX 10 12 -1 -2
BITMAP
0000
0000
1C00
2200
1800
2400
1200
0C00
2200
1C00
0000
0000
ENDCHAR
STARTCHAR char168
ENCODING 168
SWIDTH 900 0
DWIDTH 10 0
BBX 10 12 -1 -2
BITMAP
1400
1400
0000
0000
0000
0000
0000
0000
0000
0000
0000
0000
ENDCHAR
STARTCHAR char169
ENCODING 169
SWIDTH 900 0
DWIDTH 10 0
BBX 10 12 -1 -2
BITMAP
0000
0000
0000
3E00
4100
5D00
5100
5D00
4100
3E00
0000
0000
ENDCHAR
STARTCHAR char170
ENCODING 170
SWIDTH 900 0
DWIDTH 10 0
BBX 10 12 -1 -2
BITMAP
0000
0000
1C00
0200
1E00
2200
1E00
0000
3E00
0000
0000
0000
ENDCHAR
STARTCHAR char171
ENCODING 171
SWIDTH 900 0
DWIDTH 10 0
BBX 10 12 -1 -2
BITMAP
0000
0000
0000
0A00
1400
2800
5000
2800
1400
0A00
0000
0000
ENDCHAR
STARTCHAR char172
ENCODING 172
SWIDTH 900 0
DWIDTH 10 0
BBX 10 12 -1 -2
BITMAP
0000
0000
0000
0000
0000
0000
3E00
0200
0200
0000
0000
0000
ENDCHAR
STARTCHAR char173
ENCODING 173
SWIDTH 900 0
DWIDTH 10 0
BBX 10 12 -1 -2
BITMAP
0000
0000
0000
0000
0000
0000
1C00
0000
0000
0000
0000
0000
ENDCHAR
STARTCHAR char174
ENCODING 174
SWIDTH 900 0
DWIDTH 10 0
BBX 10 12 -1 -2
BITMAP
0000
0000
0000
3E00
4100
5D00
5100
5100
4100
3E00
0000
0000
ENDCHAR
STARTCHAR char175
ENCODING 175
SWIDTH 900 0
DWIDTH 10 0
BBX 10 12 -1 -2
BITMAP
0000
1C00
0000
0000
0000
0000
0000
0000
0000
0000
0000
0000
ENDCHAR
STARTCHAR char176
ENCODING 176
SWIDTH 900 0
DWIDTH 10 0
BBX 10 12 -1 -2
BITMAP
0000
0000
1000
2800
2800
1000
0000
0000
0000
0000
0000
0000
ENDCHAR
STARTCHAR char177
ENCODING 177
SWIDTH 900 0
DWIDTH 10 0
BBX 10 12 -1 -2
BITMAP
0000
0000
0000
0800
0800
3E00
0800
0800
0000
3E00
0000
0000
ENDCHAR
STARTCHAR char178
ENCODING 178
SWIDTH 900 0
DWIDTH 10 0
BBX 10 12 -1 -2
BITMAP
0000
0000
1800
2400
0800
1000
3C00
0000
0000
0000
0000
0000
ENDCHAR
STARTCHAR char179
ENCODING 179
SWIDTH 900 0
DWIDTH 10 0
BBX 10 12 -1 -2
BITMAP
0000
0000
3800
0400
1800
0400
3800
0000
0000
0000
0000
0000
ENDCHAR
STARTCHAR char180
ENCODING 180
SWIDTH 900 0
DWIDTH 10 0
BBX 10 12 -1 -2
BITMAP
0400
0800
0000
0000
0000
0000
0000
0000
0000
0000
0000
0000
ENDCHAR
STARTCHAR char181
ENCODING 181
SWIDTH 900 0
DWIDTH 10 0
BBX 10 12 -1 -2
BITMAP
0000
0000
0000
0000
0000
2200
2200
2200
2600
3A00
2000
2000
ENDCHAR
STARTCHAR char182
ENCODING 182
SWIDTH 900 0
DWIDTH 10 0
BBX 10 12 -1 -2
BITMAP
0000
0000
0000
1E00
2A00
2A00
1A00
0A00
0A00
0A00
0000
0000
ENDCHAR
STARTCHAR char183
ENCODING 183
SWIDTH 900 0
DWIDTH 10 0
BBX 10 12 -1 -2
BITMAP
0000
0000
0000
0000
0000
0800
0800
0000
0000
0000
0000
0000
ENDCHAR
STARTCHAR char184
ENCODING 184
SWIDTH 900 0
DWIDTH 10 0
BBX 10 12 -1 -2
BITMAP
0000
0000
0000
0000
0000
0000
0000
0000
0000
0800
0800
1000
ENDCHAR
STARTCHAR char185
ENCODING 185
SWIDTH 900 0
DWIDTH 10 0
BBX 10 12 -1 -2
BITMAP
0000
0000
1000
3000
1000
1000
3800
0000
0000
0000
0000
0000
ENDCHAR
STARTCHAR char186
ENCODING 186
SWIDTH 900 0
DWIDTH 10 0
BBX 10 12 -1 -2
BITMAP
0000
0000
1C00
2200
2200
2200
1C00
0000
3E00
0000
0000
0000
ENDCHAR
STARTCHAR char187
ENCODING 187
SWIDTH 900 0
DWIDTH 10 0
BBX 10 12 -1 -2
BITMAP
0000
0000
0000
2800
1400
0A00
0500
0A00
1400
2800
0000
0000
ENDCHAR
STARTCHAR char188
ENCODING 188
SWIDTH 900 0
DWIDTH 10 0
BBX 10 12 -1 -2
BITMAP
2000
6000
2000
2400
2800
1400
2C00
5400
3E00
0400
0400
0000
ENDCHAR
STARTCHAR char189
ENCODING 189
SWIDTH 900 0
DWIDTH 10 0
BBX 10 12 -1 -2
BITMAP
2000
6000
2000
2400
2800
1000
2C00
5200
0400
0800
1E00
0000
ENDCHAR
STARTCHAR char190
ENCODING 190
SWIDTH 900 0
DWIDTH 10 0
BBX 10 12 -1 -2
BITMAP
6000
1000
2000
1400
6800
1400
2C00
5400
3E00
0400
0400
0000
ENDCHAR
STARTCHAR char191
ENCODING 191
SWIDTH 900 0
DWIDTH 10 0
BBX 10 12 -1 -2
BITMAP
0000
0000
0800
0800
0000
0800
1000
2000
2200
1C00
0000
0000
ENDCHAR
STARTCHAR char192
ENCODING 192
SWIDTH 900 0
DWIDTH 10 0
BBX 10 12 -1 -2
BITMAP
1000
0800
0000
1C00
2200
2200
3E00
2200
2200
2200
0000
0000
ENDCHAR
STARTCHAR char193
ENCODING 193
SWIDTH 900 0
DWIDTH 10 0
BBX 10 12 -1 -2
BITMAP
0400
0800
0000
1C00
2200
2200
3E00
2200
2200
2200
0000
0000
ENDCHAR
STARTCHAR char194
ENCODING 194
SWIDTH 900 0
DWIDTH 10 0
BBX 10 12 -1 -2
BITMAP
0800
1400
0000
1C00
2200
2200
3E00
2200
2200
2200
0000
0000
ENDCHAR
STARTCHAR char195
ENCODING 195
SWIDTH 900 0
DWIDTH 10 0
BBX 10 12 -1 -2
BITMAP
0A00
1400
0000
1C00
2200
2200
3E00
2200
2200
2200
0000
0000
ENDCHAR
STARTCHAR char196
ENCODING 196
SWIDTH 900 0
DWIDTH 10 0
BBX 10 12 -1 -2
BITMAP
1400
1400
0000
1C00
2200
2200
3E00
2200
2200
2200
0000
0000
ENDCHAR
STARTCHAR char197
ENCODING 197
SWIDTH 900 0
DWIDTH 10 0
BBX 10 12 -1 -2
BITMAP
0800
1400
0800
1C00
2200
2200
3E00
2200
2200
2200
0000
0000
ENDCHAR
STARTCHAR char198
ENCODING 198
SWIDTH 900 0
DWIDTH 10 0
BBX 10 12 -1 -2
BITMAP
0000
0000
0000
1E00
2800
2800
3C00
2800
2800
2E00
0000
0000
ENDCHAR
STARTCHAR char199
ENCODING 199
SWIDTH 900 0
DWIDTH 10 0
BBX 10 12 -1 -2
BITMAP
0000
0000
0000
1C00
2200
2000
2000
2000
2200
1C00
0800
1000
ENDCHAR
STARTCHAR char200
ENCODING 200
SWIDTH 900 0
DWIDTH 10 0
BBX 10 12 -1 -2
BITMAP
1000
0800
0000
3E00
2000
2000
3C00
2000
2000
3E00
0000
0000
ENDCHAR
STARTCHAR char201
ENCODING 201
SWIDTH 900 0
DWIDTH 10 0
BBX 10 12 -1 -2
BITMAP
0400
0800
0000
3E00
2000
2000
3C00
2000
2000
3E00
0000
0000
ENDCHAR
STARTCHAR char202
ENCODING 202
SWIDTH 900 0
DWIDTH 10 0
BBX 10 12 -1 -2
BITMAP
0800
1400
0000
3E00
2000
2000
3C00
2000
2000
3E00
0000
0000
ENDCHAR
STARTCHAR char203
ENCODING 203
SWIDTH 900 0
DWIDTH 10 0
BBX 10 12 -1 -2
BITMAP
1400
1400
0000
3E00
2000
2000
3C00
2000
2000
3E00
0000
0000
ENDCHAR
STARTCHAR char204
ENCODING 204
SWIDTH 900 0
DWIDTH 10 0
BBX 10 12 -1 -2
BITMAP
1000
0800
0000
3E00
0800
0800
0800
0800
0800
3E00
0000
0000
ENDCHAR
STARTCHAR char205
ENCODING 205
SWIDTH 900 0
DWIDTH 10 0
BBX 10 12 -1 -2
BITMAP
0400
0800
0000
3E00
0800
0800
0800
0800
0800
3E00
0000
0000
ENDCHAR
STARTCHAR char206
ENCODING 206
SWIDTH 900 0
DWIDTH 10 0
BBX 10 12 -1 -2
BITMAP
0800
1400
0000
3E00
0800
0800
0800
0800
0800
3E00
0000
0000
ENDCHAR
STARTCHAR char207
ENCODING 207
SWIDTH 900 0
DWIDTH 10 0
BBX 10 12 -1 -2
BITMAP
1400
1400
0000
3E00
0800
0800
0800
0800
0800
3E00
0000
0000
ENDCHAR
STARTCHAR char208
ENCODING 208
SWIDTH 900 0
DWIDTH 10 0
BBX 10 12 -1 -2
BITMAP
0000
0000
0000
3C00
2200
2200
7A00
2200
2200
3C00
0000
0000
ENDCHAR
STARTCHAR char209
ENCODING 209
SWIDTH 900 0
DWIDTH 10 0
BBX 10 12 -1 -2
BITMAP
0A00
1400
0000
2200
3200
2A00
2600
2200
2200
2200
0000
0000
ENDCHAR
STARTCHAR char210
ENCODING 210
SWIDTH 900 0
DWIDTH 10 0
BBX 10 12 -1 -2
BITMAP
1000
0800
0000
1C00
2200
2200
2200
2200
2200
1C00
0000
0000
ENDCHAR
STARTCHAR char211
ENCODING 211
SWIDTH 900 0
DWIDTH 10 0
BBX 10 12 -1 -2
BITMAP
0400
0800
0000
1C00
2200
2200
2200
2200
2200
1C00
0000
0000
ENDCHAR
STARTCHAR char212
ENCODING 212
SWIDTH 900 0
DWIDTH 10 0
BBX 10 12 -1 -2
BITMAP
0800
1400
0000
1C00
2200
2200
2200
2200
2200
1C00
0000
0000
ENDCHAR
STARTCHAR char213
ENCODING 213
SWIDTH 900 0
DWIDTH 10 0
BBX 10 12 -1 -2
BITMAP
0A00
1400
0000
1C00
2200
2200
2200
2200
2200
1C00
0000
0000
ENDCHAR
STARTCHAR char214
ENCODING 214
SWIDTH 900 0
DWIDTH 10 0
BBX 10 12 -1 -2
BITMAP
1400
1400
0000
1C00
2200
2200
2200
2200
2200
1C00
0000
0000
ENDCHAR
STARTCHAR char215
ENCODING 215
SWIDTH 900 0
DWIDTH 10 0
BBX 10 12 -1 -2
BITMAP
0000
0000
0000
0000
2200
1400
0800
1400
2200
0000
0000
0000
ENDCHAR
STARTCHAR char216
ENCODING 216
SWIDTH 900 0
DWIDTH 10 0
BBX 10 12 -1 -2
BITMAP
0000
0000
0000
1D00
2200
2600
2A00
3200
2200
5C00
0000
0000
ENDCHAR
STARTCHAR char217
ENCODING 217
SWIDTH 900 0
DWIDTH 10 0
BBX 10 12 -1 -2
BITMAP
1000
0800
0000
2200
2200
2200
2200
2200
2200
1C00
0000
0000
ENDCHAR
STARTCHAR char218
ENCODING 218
SWIDTH 900 0
DWIDTH 10 0
BBX 10 12 -1 -2
BITMAP
0400
0800
0000
2200
2200
2200
2200
2200
2200
1C00
0000
0000
ENDCHAR
STARTCHAR char219
ENCODING 219
SWIDTH 900 0
DWIDTH 10 0
BBX 10 12 -1 -2
BITMAP
0800
1400
0000
2200
2200
2200
2200
2200
2200
1C00
0000
0000
ENDCHAR
STARTCHAR char220
ENCODING 220
SWIDTH 900 0
DWIDTH 10 0
BBX 10 12 -1 -2
BITMAP
1400
1400
0000
2200
2200
2200
2200
2200
2200
1C00
0000
0000
ENDCHAR
STARTCHAR char221
ENCODING 221
SWIDTH 900 0
DWIDTH 10 0
BBX 10 12 -1 -2
BITMAP
0400
0800
0000
2200
2200
1400
1C00
0800
0800
0800
0000
0000
ENDCHAR
STARTCHAR char222
ENCODING 222
SWIDTH 900 0
DWIDTH 10 0
BBX 10 12 -1 -2
BITMAP
0000
0000
0000
2000
3C00
2200
2200
2200
3C00
2000
0000
0000
ENDCHAR
STARTCHAR char223
ENCODING 223
SWIDTH 900 0
DWIDTH 10 0
BBX 10 12 -1 -2
BITMAP
0000
0000
0000
1800
2400
2800
3C00
2200
3200
2C00
0000
0000
ENDCHAR
STARTCHAR char224
ENCODING 224
SWIDTH 900 0
DWIDTH 10 0
BBX 10 12 -1 -2
BITMAP
0000
0000
1000
0800
0000
1C00
0200
1E00
2200
1E00
0000
0000
ENDCHAR
STARTCHAR char225
ENCODING 225
SWIDTH 900 0
DWIDTH 10 0
BBX 10 12 -1 -2
BITMAP
0000
0000
0400
0800
0000
1C00
0200
1E00
2200
1E00
0000
0000
ENDCHAR
STARTCHAR char226
ENCODING 226
SWIDTH 900 0
DWIDTH 10 0
BBX 10 12 -1 -2
BITMAP
0000
0000
0800
1400
0000
1C00
0200
1E00
2200
1E00
0000
0000
ENDCHAR
STARTCHAR char227
ENCODING 227
SWIDTH 900 0
DWIDTH 10 0
BBX 10 12 -1 -2
BITMAP
0000
0000
0A00
1400
0000
1C00
0200
1E00
2200
1E00
0000
0000
ENDCHAR
STARTCHAR char228
ENCODING 228
SWIDTH 900 0
DWIDTH 10 0
BBX 10 12 -1 -2
BITMAP
0000
0000
1400
1400
0000
1C00
0200
1E00
2200
1E00
0000
0000
ENDCHAR
STARTCHAR char229
ENCODING 229
SWIDTH 900 0
DWIDTH 10 0
BBX 10 12 -1 -2
BITMAP
0000
0800
1400
0800
0000
1C00
0200
1E00
2200
1E00
0000
0000
ENDCHAR
STARTCHAR char230
ENCODING 230
SWIDTH 900 0
DWIDTH 10 0
BBX 10 12 -1 -2
BITMAP
0000
0000
0000
0000
0000
1C00
0A00
1E00
2800
1E00
0000
0000
ENDCHAR
STARTCHAR char231
ENCODING 231
SWIDTH 900 0
DWIDTH 10 0
BBX 10 12 -1 -2
BITMAP
0000
0000
0000
0000
0000
1E00
2000
2000
2000
1E00
0800
1000
ENDCHAR
STARTCHAR char232
ENCODING 232
SWIDTH 900 0
DWIDTH 10 0
BBX 10 12 -1 -2
BITMAP
0000
0000
1000
0800
0000
1C00
2200
3E00
2000
1E00
0000
0000
ENDCHAR
STARTCHAR char233
ENCODING 233
SWIDTH 900 0
DWIDTH 10 0
BBX 10 12 -1 -2
BITMAP
0000
0000
0400
0800
0000
1C00
2200
3E00
2000
1E00
0000
0000
ENDCHAR
STARTCHAR char234
ENCODING 234
SWIDTH 900 0
DWIDTH 10 0
BBX 10 12 -1 -2
BITMAP
0000
0000
0800
1400
0000
1C00
2200
3E00
2000
1E00
0000
0000
ENDCHAR
STARTCHAR char235
ENCODING 235
SWIDTH 900 0
DWIDTH 10 0
BBX 10 12 -1 -2
BITMAP
0000
0000
1400
1400
0000
1C00
2200
3E00
2000
1E00
0000
0000
ENDCHAR
STARTCHAR char236
ENCODING 236
SWIDTH 900 0
DWIDTH 10 0
BBX 10 12 -1 -2
BITMAP
0000
0000
1000
0800
0000
3800
0800
0800
0800
3E00
0000
0000
ENDCHAR
STARTCHAR char237
ENCODING 237
SWIDTH 900 0
DWIDTH 10 0
BBX 10 12 -1 -2
BITMAP
0000
0000
0400
0800
0000
3800
0800
0800
0800
3E00
0000
0000
ENDCHAR
STARTCHAR char238
ENCODING 238
SWIDTH 900 0
DWIDTH 10 0
BBX 10 12 -1 -2
BITMAP
0000
0000
0800
1400
0000
3800
0800
0800
0800
3E00
0000
0000
ENDCHAR
STARTCHAR char239
ENCODING 239
SWIDTH 900 0
DWIDTH 10 0
BBX 10 12 -1 -2
BITMAP
0000
0000
1400
1400
0000
3800
0800
0800
0800
3E00
0000
0000
ENDCHAR
STARTCHAR char240
ENCODING 240
SWIDTH 900 0
DWIDTH 10 0
BBX 10 12 -1 -2
BITMAP
0000
2800
1000
2800
0000
1C00
2200
2200
2200
1C00
0000
0000
ENDCHAR
STARTCHAR char241
ENCODING 241
SWIDTH 900 0
DWIDTH 10 0
BBX 10 12 -1 -2
BITMAP
0000
0000
0A00
1400
0000
3C00
2200
2200
2200
2200
0000
0000
ENDCHAR
STARTCHAR char242
ENCODING 242
SWIDTH 900 0
DWIDTH 10 0
BBX 10 12 -1 -2
BITMAP
0000
0000
1000
0800
0000
1C00
2200
2200
2200
1C00
0000
0000
ENDCHAR
STARTCHAR char243
ENCODING 243
SWIDTH 900 0
DWIDTH 10 0
BBX 10 12 -1 -2
BITMAP
0000
0000
0400
0800
0000
1C00
2200
2200
2200
1C00
0000
0000
ENDCHAR
STARTCHAR char244
ENCODING 244
SWIDTH 900 0
DWIDTH 10 0
BBX 10 12 -1 -2
BITMAP
0000
0000
0800
1400
0000
1C00
2200
2200
2200
1C00
0000
0000
ENDCHAR
STARTCHAR char245
ENCODING 245
SWIDTH 900 0
DWIDTH 10 0
BBX 10 12 -1 -2
BITMAP
0000
0000
0A00
1400
0000
1C00
2200
2200
2200
1C00
0000
0000
ENDCHAR
STARTCHAR char246
ENCODING 246
SWIDTH 900 0
DWIDTH 10 0
BBX 10 12 -1 -2
BITMAP
0000
0000
1400
1400
0000
1C00
2200
2200
2200
1C00
0000
0000
ENDCHAR
STARTCHAR char247
ENCODING 247
SWIDTH 900 0
DWIDTH 10 0
BBX 10 12 -1 -2
BITMAP
0000
0000
0000
0800
0800
0000
3E00
0000
0800
0800
0000
0000
ENDCHAR
STARTCHAR char248
ENCODING 248
SWIDTH 900 0
DWIDTH 10 0
BBX 10 12 -1 -2
BITMAP
0000
0000
0000
0000
0000
1D00
2600
2A00
3200
5C00
0000
0000
ENDCHAR
STARTCHAR char249
ENCODING 249
SWIDTH 900 0
DWIDTH 10 0
BBX 10 12 -1 -2
BITMAP
0000
0000
1000
0800
0000
2200
2200
2200
2200
1E00
0000
0000
ENDCHAR
STARTCHAR char250
ENCODING 250
SWIDTH 900 0
DWIDTH 10 0
BBX 10 12 -1 -2
BITMAP
0000
0000
0400
0800
0000
2200
2200
2200
2200
1E00
0000
0000
ENDCHAR
STARTCHAR char251
ENCODING 251
SWIDTH 900 0
DWIDTH 10 0
BBX 10 12 -1 -2
BITMAP
0000
0000
0800
1400
0000
2200
2200
2200
2200
1E00
0000
0000
ENDCHAR
STARTCHAR char252
ENCODING 252
SWIDTH 900 0
DWIDTH 10 0
BBX 10 12 -1 -2
BITMAP
0000
0000
1400
1400
0000
2200
2200
2200
2200
1E00
0000
0000
ENDCHAR
STARTCHAR char253
ENCODING 253
SWIDTH 900 0
DWIDTH 10 0
BBX 10 12 -1 -2
BITMAP
0000
0000
0400
0800
0000
2200
2200
2200
2200
1E00
0200
1C00
ENDCHAR
STARTCHAR char254
ENCODING 254
SWIDTH 900 0
DWIDTH 10 0
BBX 10 12 -1 -2
BITMAP
0000
0000
0000
2000
2000
3C00
2200
2200
2200
3C00
2000
2000
ENDCHAR
STARTCHAR char255
ENCODING 255
SWIDTH 900 0
DWIDTH 10 0
BBX 10 12 -1 -2
BITMAP
0000
0000
1400
1400
0000
2200
2200
2200
2200
1E00
0200
1C00
ENDCHAR
STARTCHAR char160
ENCODING 288
SWIDTH 900 0
DWIDTH 10 0
BBX 10 12 -1 -2
BITMAP
0000
0000
0000
0C00
0C00
1E00
2D00
2D00
2100
1E00
0000
0000
ENDCHAR
STARTCHAR char161
ENCODING 289
SWIDTH 900 0
DWIDTH 10 0
BBX 10 12 -1 -2
BITMAP
0000
0000
0000
0600
0F00
0900
0900
0900
0900
0F00
0000
0000
ENDCHAR
STARTCHAR char162
ENCODING 290
SWIDTH 900 0
DWIDTH 10 0
BBX 10 12 -1 -2
BITMAP
0000
0000
0000
0000
0000
0000
0F00
0000
0600
0600
0000
0000
ENDCHAR
STARTCHAR char163
ENCODING 291
SWIDTH 900 0
DWIDTH 10 0
BBX 10 12 -1 -2
BITMAP
0000
0000
0000
0000
3F00
0000
1E00
0000
0C00
0C00
0000
0000
ENDCHAR
STARTCHAR char164
ENCODING 292
SWIDTH 900 0
DWIDTH 10 0
BBX 10 12 -1 -2
BITMAP
0000
0000
0000
1E00
3300
2D00
2D00
3300
1E00
2100
0000
0000
ENDCHAR
STARTCHAR char165
ENCODING 293
SWIDTH 900 0
DWIDTH 10 0
BBX 10 12 -1 -2
BITMAP
0000
0000
1E00
3300
3F00
3300
3300
3300
3300
1E00
0000
0000
ENDCHAR
STARTCHAR char166
ENCODING 294
SWIDTH 900 0
DWIDTH 10 0
BBX 10 12 -1 -2
BITMAP
0000
0000
0000
1200
1200
3F00
3F00
1E00
0C00
0C00
0000
0000
ENDCHAR
STARTCHAR char167
ENCODING 295
SWIDTH 900 0
DWIDTH 10 0
BBX 10 12 -1 -2
BITMAP
0000
0000
1E00
3300
3300
3300
3300
3F00
3300
1E00
0000
0000
ENDCHAR
STARTCHAR char168
ENCODING 296
SWIDTH 900 0
DWIDTH 10 0
BBX 10 12 -1 -2
BITMAP
0000
0000
0000
3F00
2D00
2100
3F00
2D00
2100
3F00
0000
0000
ENDCHAR
STARTCHAR char169
ENCODING 297
SWIDTH 900 0
DWIDTH 10 0
BBX 10 12 -1 -2
BITMAP
0000
0000
0000
0C00
1E00
1E00
0C00
1E00
3F00
3F00
0000
0000
ENDCHAR
STARTCHAR char170
ENCODING 298
SWIDTH 900 0
DWIDTH 10 0
BBX 10 12 -1 -2
BITMAP
0000
0000
0000
0900
1C00
1D00
1400
2200
2200
1C00
0000
0000
ENDCHAR
STARTCHAR char171
ENCODING 299
SWIDTH 900 0
DWIDTH 10 0
BBX 10 12 -1 -2
BITMAP
0000
0000
0000
0A00
1400
2800
5000
2800
1400
0A00
0000
0000
ENDCHAR
STARTCHAR char172
ENCODING 300
SWIDTH 900 0
DWIDTH 10 0
BBX 10 12 -1 -2
BITMAP
0000
0000
0000
0000
0000
0100
0100
0500
0500
0500
0000
0000
ENDCHAR
STARTCHAR char173
ENCODING 301
SWIDTH 900 0
DWIDTH 10 0
BBX 10 12 -1 -2
BITMAP
0000
0000
0000
0100
0100
0500
0500
1500
1500
1500
0000
0000
ENDCHAR
STARTCHAR char174
ENCODING 302
SWIDTH 900 0
DWIDTH 10 0
BBX 10 12 -1 -2
BITMAP
0000
0000
0000
0000
3C00
2200
3900
2500
3500
3F00
0000
0000
ENDCHAR
STARTCHAR char175
ENCODING 303
SWIDTH 900 0
DWIDTH 10 0
BBX 10 12 -1 -2
BITMAP
0000
0000
0000
0000
3300
2D00
1E00
1E00
2D00
3300
0000
0000
ENDCHAR
STARTCHAR char176
ENCODING 304
SWIDTH 900 0
DWIDTH 10 0
BBX 10 12 -1 -2
BITMAP
0000
0000
1000
2800
2800
1000
0000
0000
0000
0000
0000
0000
ENDCHAR
STARTCHAR char177
ENCODING 305
SWIDTH 900 0
DWIDTH 10 0
BBX 10 12 -1 -2
BITMAP
0000
0000
0000
0C00
0F00
0C00
0F00
0C00
1E00
0C00
0000
0000
ENDCHAR
STARTCHAR char178
ENCODING 306
SWIDTH 900 0
DWIDTH 10 0
BBX 10 12 -1 -2
BITMAP
0000
0000
0000
0E00
1100
1100
1100
1F00
1F00
1F00
0000
0000
ENDCHAR
STARTCHAR char179
ENCODING 307
SWIDTH 900 0
DWIDTH 10 0
BBX 10 12 -1 -2
BITMAP
0000
0000
0000
0000
2100
1E00
1E00
1E00
1E00
2100
0000
0000
ENDCHAR
STARTCHAR char180
ENCODING 308
SWIDTH 900 0
DWIDTH 10 0
BBX 10 12 -1 -2
BITMAP
0000
0000
0E00
0E00
0000
1E00
0E00
0E00
0E00
1F00
0000
0000
ENDCHAR
STARTCHAR char181
ENCODING 309
SWIDTH 900 0
DWIDTH 10 0
BBX 10 12 -1 -2
BITMAP
0000
0000
0200
0400
0C00
1800
1F00
3E00
0600
0C00
0800
1000
ENDCHAR
STARTCHAR char182
ENCODING 310
SWIDTH 900 0
DWIDTH 10 0
BBX 10 12 -1 -2
BITMAP
0000
0000
0000
0000
1E00
3700
3700
3100
3F00
1E00
0000
0000
ENDCHAR
STARTCHAR char183
ENCODING 311
SWIDTH 900 0
DWIDTH 10 0
BBX 10 12 -1 -2
BITMAP
0000
0000
0000
1C00
3600
7700
7100
7F00
3E00
1C00
0000
0000
ENDCHAR
STARTCHAR char184
ENCODING 312
SWIDTH 900 0
DWIDTH 10 0
BBX 10 12 -1 -2
BITMAP
0000
0000
0000
0000
0C00
1600
3700
3100
1E00
0C00
0000
0000
ENDCHAR
STARTCHAR char185
ENCODING 313
SWIDTH 900 0
DWIDTH 10 0
BBX 10 12 -1 -2
BITMAP
0000
0000
0000
0C00
0C00
1E00
1E00
3300
3300
2100
0000
0000
ENDCHAR
STARTCHAR char186
ENCODING 314
SWIDTH 900 0
DWIDTH 10 0
BBX 10 12 -1 -2
BITMAP
0000
0000
0000
0000
1E00
3700
3E00
3C00
3F00
1E00
0000
0000
ENDCHAR
STARTCHAR char187
ENCODING 315
SWIDTH 900 0
DWIDTH 10 0
BBX 10 12 -1 -2
BITMAP
0000
0000
0000
5000
2800
1400
0A00
1400
2800
5000
0000
0000
ENDCHAR
STARTCHAR char188
ENCODING 316
SWIDTH 900 0
DWIDTH 10 0
BBX 10 12 -1 -2
BITMAP
0000
0000
0000
0400
2600
1500
0E00
1500
2600
0400
0000
0000
ENDCHAR
STARTCHAR char189
ENCODING 317
SWIDTH 900 0
DWIDTH 10 0
BBX 10 12 -1 -2
BITMAP
0000
0000
1E00
3F00
2100
2900
2500
2900
2100
1E00
0000
0000
ENDCHAR
STARTCHAR char190
ENCODING 318
SWIDTH 900 0
DWIDTH 10 0
BBX 10 12 -1 -2
BITMAP
0000
0000
1E00
3F00
2100
2D00
2100
2D00
2100
1E00
0000
0000
ENDCHAR
STARTCHAR char191
ENCODING 319
SWIDTH 900 0
DWIDTH 10 0
BBX 10 12 -1 -2
BITMAP
0000
0000
0000
0C00
3F00
2100
2D00
2D00
2100
3F00
0000
0000
ENDCHAR
STARTCHAR char192
ENCODING 320
SWIDTH 900 0
DWIDTH 10 0
BBX 10 12 -1 -2
BITMAP
0000
0000
0000
0000
0100
0500
3500
3500
0500
0100
0000
0000
ENDCHAR
STARTCHAR char193
ENCODING 321
SWIDTH 900 0
DWIDTH 10 0
BBX 10 12 -1 -2
BITMAP
0000
0000
0000
0000
0000
0100
0D00
0D00
0100
0000
0000
0000
ENDCHAR
STARTCHAR char194
ENCODING 322
SWIDTH 900 0
DWIDTH 10 0
BBX 10 12 -1 -2
BITMAP
0000
0000
0000
0000
1C00
7F00
7C00
7F00
1C00
0000
0000
0000
ENDCHAR
STARTCHAR char195
ENCODING 323
SWIDTH 900 0
DWIDTH 10 0
BBX 10 12 -1 -2
BITMAP
0000
0000
0000
0000
0200
0600
1D00
1A00
0400
0A00
0000
0000
ENDCHAR
STARTCHAR char196
ENCODING 324
SWIDTH 900 0
DWIDTH 10 0
BBX 10 12 -1 -2
BITMAP
0000
0000
0000
0000
0100
0300
0F00
0F00
0300
0100
0000
0000
ENDCHAR
STARTCHAR char197
ENCODING 325
SWIDTH 900 0
DWIDTH 10 0
BBX 10 12 -1 -2
BITMAP
0000
0000
0000
0000
0400
0C00
3D00
3D00
0C00
0400
0000
0000
ENDCHAR
STARTCHAR char198
ENCODING 326
SWIDTH 900 0
DWIDTH 10 0
BBX 10 12 -1 -2
BITMAP
0000
0000
0000
0000
1500
0000
1F00
1F00
0000
1500
0000
0000
ENDCHAR
STARTCHAR char199
ENCODING 327
SWIDTH 900 0
DWIDTH 10 0
BBX 10 12 -1 -2
BITMAP
0000
0000
0000
0000
3900
1F00
1300
3200
3E00
2700
0000
0000
ENDCHAR
STARTCHAR char200
ENCODING 328
SWIDTH 900 0
DWIDTH 10 0
BBX 10 12 -1 -2
BITMAP
0000
0000
0000
0000
3F00
3700
3700
3100
3F00
3F00
0000
0000
ENDCHAR
STARTCHAR char201
ENCODING 329
SWIDTH 900 0
DWIDTH 10 0
BBX 10 12 -1 -2
BITMAP
0000
0000
0000
3E00
7700
7700
7100
7F00
7F00
3E00
0000
0000
ENDCHAR
STARTCHAR char202
ENCODING 330
SWIDTH 900 0
DWIDTH 10 0
BBX 10 12 -1 -2
BITMAP
0000
0000
0000
7F00
3E00
5D00
6B00
7700
7F00
7F00
0000
0000
ENDCHAR
STARTCHAR char203
ENCODING 331
SWIDTH 900 0
DWIDTH 10 0
BBX 10 12 -1 -2
BITMAP
0000
0000
0000
7F00
4100
6300
5500
4900
4100
7F00
0000
0000
ENDCHAR
STARTCHAR char204
ENCODING 332
SWIDTH 900 0
DWIDTH 10 0
BBX 10 12 -1 -2
BITMAP
0000
0000
0000
0000
7F00
3E00
5D00
6300
7F00
7F00
0000
0000
ENDCHAR
STARTCHAR char205
ENCODING 333
SWIDTH 900 0
DWIDTH 10 0
BBX 10 12 -1 -2
BITMAP
0000
0000
0000
0000
7F00
4100
6300
5D00
4100
7F00
0000
0000
ENDCHAR
STARTCHAR char206
ENCODING 334
SWIDTH 900 0
DWIDTH 10 0
BBX 10 12 -1 -2
BITMAP
0000
0000
0000
5500
0000
7F00
7F00
7F00
0000
5500
0000
0000
ENDCHAR
STARTCHAR char207
ENCODING 335
SWIDTH 900 0
DWIDTH 10 0
BBX 10 12 -1 -2
BITMAP
0000
0000
0000
0400
0500
1500
1600
0C00
0400
0400
0000
0000
ENDCHAR
STARTCHAR char208
ENCODING 336
SWIDTH 900 0
DWIDTH 10 0
BBX 10 12 -1 -2
BITMAP
0000
0000
0000
7F00
5D00
6B00
7700
6B00
5D00
7F00
0000
0000
ENDCHAR
STARTCHAR char209
ENCODING 337
SWIDTH 900 0
DWIDTH 10 0
BBX 10 12 -1 -2
BITMAP
0000
0000
0000
6B00
6300
1C00
5D00
1C00
6300
6B00
0000
0000
ENDCHAR
STARTCHAR char210
ENCODING 338
SWIDTH 900 0
DWIDTH 10 0
BBX 10 12 -1 -2
BITMAP
0000
0000
1000
0300
4700
0E00
3400
4800
4800
3000
0000
0000
ENDCHAR
STARTCHAR char211
ENCODING 339
SWIDTH 900 0
DWIDTH 10 0
BBX 10 12 -1 -2
BITMAP
0000
0000
0000
0000
4400
7E00
7F00
7F00
3E00
0400
0000
0000
ENDCHAR
STARTCHAR char212
ENCODING 340
SWIDTH 900 0
DWIDTH 10 0
BBX 10 12 -1 -2
BITMAP
0000
0000
0000
0000
1100
3F00
7F00
7F00
3E00
1000
0000
0000
ENDCHAR
STARTCHAR char213
ENCODING 341
SWIDTH 900 0
DWIDTH 10 0
BBX 10 12 -1 -2
BITMAP
0000
0000
0000
0000
1000
3E00
7F00
7F00
3F00
1100
0000
0000
ENDCHAR
STARTCHAR char214
ENCODING 342
SWIDTH 900 0
DWIDTH 10 0
BBX 10 12 -1 -2
BITMAP
0000
0000
0000
0000
0400
3E00
7F00
7F00
7E00
4400
0000
0000
ENDCHAR
STARTCHAR char215
ENCODING 343
SWIDTH 900 0
DWIDTH 10 0
BBX 10 12 -1 -2
BITMAP
0000
0000
0000
0000
2200
1400
0800
1400
2200
0000
0000
0000
ENDCHAR
STARTCHAR char216
ENCODING 344
SWIDTH 900 0
DWIDTH 10 0
BBX 10 12 -1 -2
BITMAP
0000
0000
0000
0000
0400
7E00
7F00
7F00
7E00
0400
0000
0000
ENDCHAR
STARTCHAR char217
ENCODING 345
SWIDTH 900 0
DWIDTH 10 0
BBX 10 12 -1 -2
BITMAP
0000
0000
0000
0000
1000
3F00
7F00
7F00
3F00
1000
0000
0000
ENDCHAR
STARTCHAR char218
ENCODING 346
SWIDTH 900 0
DWIDTH 10 0
BBX 10 12 -1 -2
BITMAP
0000
0000
0000
1E00
1E00
1E00
1E00
3F00
1E00
0C00
0000
0000
ENDCHAR
STARTCHAR char219
ENCODING 347
SWIDTH 900 0
DWIDTH 10 0
BBX 10 12 -1 -2
BITMAP
0000
0000
0000
0C00
1E00
3F00
1E00
1E00
1E00
1E00
0000
0000
ENDCHAR
STARTCHAR char220
ENCODING 348
SWIDTH 900 0
DWIDTH 10 0
BBX 10 12 -1 -2
BITMAP
0000
0000
0000
0C00
1E00
3F00
1E00
1E00
1E00
3C00
0000
0000
ENDCHAR
STARTCHAR char221
ENCODING 349
SWIDTH 900 0
DWIDTH 10 0
BBX 10 12 -1 -2
BITMAP
0000
0000
0000
3C00
1E00
1E00
1E00
3F00
1E00
0C00
0000
0000
ENDCHAR
STARTCHAR char222
ENCODING 350
SWIDTH 900 0
DWIDTH 10 0
BBX 10 12 -1 -2
BITMAP
0000
0000
0000
0C00
1E00
3F00
1E00
1E00
1E00
0F00
0000
0000
ENDCHAR
STARTCHAR char223
ENCODING 351
SWIDTH 900 0
DWIDTH 10 0
BBX 10 12 -1 -2
BITMAP
0000
0000
0000
0F00
1E00
1E00
1E00
3F00
1E00
0C00
0000
0000
ENDCHAR
STARTCHAR char224
ENCODING 352
SWIDTH 900 0
DWIDTH 10 0
BBX 10 12 -1 -2
BITMAP
0000
0000
0000
3E00
4100
4100
4100
7700
7700
3600
0000
0000
ENDCHAR
STARTCHAR char225
ENCODING 353
SWIDTH 900 0
DWIDTH 10 0
BBX 10 12 -1 -2
BITMAP
0000
0000
0000
0C00
0C00
2D00
2100
1E00
0C00
1E00
0000
0000
ENDCHAR
STARTCHAR char226
ENCODING 354
SWIDTH 900 0
DWIDTH 10 0
BBX 10 12 -1 -2
BITMAP
0000
0000
0000
0000
1100
1300
1700
1700
1300
1100
0000
0000
ENDCHAR
STARTCHAR char227
ENCODING 355
SWIDTH 900 0
DWIDTH 10 0
BBX 10 12 -1 -2
BITMAP
0000
0000
0000
0000
0900
1B00
3F00
3F00
1B00
0900
0000
0000
ENDCHAR
STARTCHAR char228
ENCODING 356
SWIDTH 900 0
DWIDTH 10 0
BBX 10 12 -1 -2
BITMAP
0000
0000
0000
0000
1E00
3F00
3F00
3F00
3F00
1E00
0000
0000
ENDCHAR
STARTCHAR char229
ENCODING 357
SWIDTH 900 0
DWIDTH 10 0
BBX 10 12 -1 -2
BITMAP
0000
0000
0000
0000
3F00
3F00
3F00
3F00
3F00
3F00
0000
0000
ENDCHAR
STARTCHAR char230
ENCODING 358
SWIDTH 900 0
DWIDTH 10 0
BBX 10 12 -1 -2
BITMAP
0000
0000
0000
0000
0400
0600
0700
0700
0600
0400
0000
0000
ENDCHAR
STARTCHAR char231
ENCODING 359
SWIDTH 900 0
DWIDTH 10 0
BBX 10 12 -1 -2
BITMAP
0000
0000
0000
0000
1B00
1B00
1B00
1B00
1B00
1B00
0000
0000
ENDCHAR
STARTCHAR char232
ENCODING 360
SWIDTH 900 0
DWIDTH 10 0
BBX 10 12 -1 -2
BITMAP
0000
0000
0000
0000
2400
3600
3F00
3F00
3600
2400
0000
0000
ENDCHAR
STARTCHAR char233
ENCODING 361
SWIDTH 900 0
DWIDTH 10 0
BBX 10 12 -1 -2
BITMAP
0000
0000
0000
0000
1100
1900
1D00
1D00
1900
1100
0000
0000
ENDCHAR
STARTCHAR char234
ENCODING 362
SWIDTH 900 0
DWIDTH 10 0
BBX 10 12 -1 -2
BITMAP
0000
0000
0000
1F00
1F00
1100
1100
3300
7700
6600
0000
0000
ENDCHAR
STARTCHAR char235
ENCODING 363
SWIDTH 900 0
DWIDTH 10 0
BBX 10 12 -1 -2
BITMAP
0000
0000
0000
0200
0600
3D00
3A00
3400
0A00
1200
0000
0000
ENDCHAR
STARTCHAR char236
ENCODING 364
SWIDTH 900 0
DWIDTH 10 0
BBX 10 12 -1 -2
BITMAP
0000
0000
0000
0100
0300
1F00
1F00
1F00
0300
0100
0000
0000
ENDCHAR
STARTCHAR char237
ENCODING 365
SWIDTH 900 0
DWIDTH 10 0
BBX 10 12 -1 -2
BITMAP
0000
0000
0000
0400
0C00
7D00
7D00
7D00
0C00
0400
0000
0000
ENDCHAR
STARTCHAR char238
ENCODING 366
SWIDTH 900 0
DWIDTH 10 0
BBX 10 12 -1 -2
BITMAP
0000
0000
0000
0400
1F00
1100
1100
1100
1100
1F00
0000
0000
ENDCHAR
STARTCHAR char239
ENCODING 367
SWIDTH 900 0
DWIDTH 10 0
BBX 10 12 -1 -2
BITMAP
0000
0000
0000
0400
1F00
1100
1100
1500
1100
1F00
0000
0000
ENDCHAR
STARTCHAR char240
ENCODING 368
SWIDTH 900 0
DWIDTH 10 0
BBX 10 12 -1 -2
BITMAP
0000
0000
0000
0400
1F00
1100
1500
1500
1100
1F00
0000
0000
ENDCHAR
STARTCHAR char241
ENCODING 369
SWIDTH 900 0
DWIDTH 10 0
BBX 10 12 -1 -2
BITMAP
0000
0000
0000
0000
7E00
4200
4300
4200
7E00
0000
0000
0000
ENDCHAR
STARTCHAR char242
ENCODING 370
SWIDTH 900 0
DWIDTH 10 0
BBX 10 12 -1 -2
BITMAP
0000
0000
0000
0000
7E00
4200
5300
4200
7E00
0000
0000
0000
ENDCHAR
STARTCHAR char243
ENCODING 371
SWIDTH 900 0
DWIDTH 10 0
BBX 10 12 -1 -2
BITMAP
0000
0000
0000
0000
7E00
4200
5B00
4200
7E00
0000
0000
0000
ENDCHAR
STARTCHAR char244
ENCODING 372
SWIDTH 900 0
DWIDTH 10 0
BBX 10 12 -1 -2
BITMAP
0000
0000
7F00
7F00
6300
6300
6300
6300
7F00
7F00
0000
0000
ENDCHAR
STARTCHAR char245
ENCODING 373
SWIDTH 900 0
DWIDTH 10 0
BBX 10 12 -1 -2
BITMAP
0000
0000
7700
7700
7700
7700
0000
6B00
6B00
6B00
0000
0000
ENDCHAR
STARTCHAR char246
ENCODING 374
SWIDTH 900 0
DWIDTH 10 0
BBX 10 12 -1 -2
BITMAP
0000
0000
7700
7700
7000
7700
0700
7000
7700
7700
0000
0000
ENDCHAR
STARTCHAR char247
ENCODING 375
SWIDTH 900 0
DWIDTH 10 0
BBX 10 12 -1 -2
BITMAP
0000
0000
0000
1500
0000
1F00
1F00
1F00
0000
1500
0000
0000
ENDCHAR
STARTCHAR char248
ENCODING 376
SWIDTH 900 0
DWIDTH 10 0
BBX 10 12 -1 -2
BITMAP
0000
0000
7700
7700
7700
7700
7000
7500
7100
7500
0000
0000
ENDCHAR
STARTCHAR char249
ENCODING 377
SWIDTH 900 0
DWIDTH 10 0
BBX 10 12 -1 -2
BITMAP
0000
0000
7700
7700
7700
7700
7000
7500
7400
7500
0000
0000
ENDCHAR
STARTCHAR char250
ENCODING 378
SWIDTH 900 0
DWIDTH 10 0
BBX 10 12 -1 -2
BITMAP
0000
0000
6B00
6B00
0000
6B00
6B00
0000
6B00
6B00
0000
0000
ENDCHAR
STARTCHAR char251
ENCODING 379
SWIDTH 900 0
DWIDTH 10 0
BBX 10 12 -1 -2
BITMAP
0000
0000
7F00
7F00
7F00
7F00
0000
7F00
0000
7F00
0000
0000
ENDCHAR
STARTCHAR char252
ENCODING 380
SWIDTH 900 0
DWIDTH 10 0
BBX 10 12 -1 -2
BITMAP
0000
0000
7F00
7F00
7F00
7F00
0000
6B00
6B00
6B00
0000
0000
ENDCHAR
STARTCHAR char253
ENCODING 381
SWIDTH 900 0
DWIDTH 10 0
BBX 10 12 -1 -2
BITMAP
0000
0000
7B00
7B00
7B00
7B00
0300
7F00
7F00
7F00
0000
0000
ENDCHAR
STARTCHAR char254
ENCODING 382
SWIDTH 900 0
DWIDTH 10 0
BBX 10 12 -1 -2
BITMAP
0000
0000
7700
7700
7000
7700
7700
7000
7700
7700
0000
0000
ENDCHAR
STARTCHAR char255
ENCODING 383
SWIDTH 900 0
DWIDTH 10 0
BBX 10 12 -1 -2
BITMAP
0000
0000
7F00
7F00
7F00
7F00
7F00
7F00
7F00
7F00
0000
0000
ENDCHAR
STARTCHAR char340
ENCODING 384
SWIDTH 900 0
DWIDTH 10 0
BBX 10 12 -1 -2
BITMAP
0000
0000
1E00
3300
7B80
7A80
5280
5380
2700
1E00
0000
0000
ENDCHAR
STARTCHAR char256
ENCODING 385
SWIDTH 900 0
DWIDTH 10 0
BBX 10 12 -1 -2
BITMAP
0000
0000
3000
7600
6F00
2F00
7600
6F00
1F80
1F80
0000
0000
ENDCHAR
STARTCHAR char256
ENCODING 386
SWIDTH 900 0
DWIDTH 10 0
BBX 10 12 -1 -2
BITMAP
0000
0000
0000
7FC0
4040
5040
4840
5640
4040
7FC0
0000
0000
ENDCHAR
STARTCHAR char256
ENCODING 387
SWIDTH 900 0
DWIDTH 10 0
BBX 10 12 -1 -2
BITMAP
0000
7C00
4600
4700
4780
4080
4080
4080
4080
4080
7F80
0000
ENDCHAR
STARTCHAR char256
ENCODING 388
SWIDTH 900 0
DWIDTH 10 0
BBX 10 12 -1 -2
BITMAP
0000
0000
3F00
7F80
4080
5080
4880
5080
4080
3F00
0000
0000
ENDCHAR
STARTCHAR char252
ENCODING 389
SWIDTH 900 0
DWIDTH 10 0
BBX 10 12 -1 -2
BITMAP
0000
0000
7F00
5A80
5A80
5E80
4080
4080
4080
7F80
0000
0000
ENDCHAR
STARTCHAR char304
ENCODING 390
SWIDTH 900 0
DWIDTH 10 0
BBX 10 12 -1 -2
BITMAP
0000
0000
1E00
3B00
7380
7F80
7000
7C00
3F00
1E00
0000
0000
ENDCHAR
STARTCHAR char316
ENCODING 391
SWIDTH 900 0
DWIDTH 10 0
BBX 10 12 -1 -2
BITMAP
0000
0400
0400
0E00
0E00
1F00
1F00
3B80
3180
71C0
4040
0000
ENDCHAR
STARTCHAR AE
ENCODING 392
SWIDTH 900 0
DWIDTH 10 0
BBX 10 12 -1 -2
BITMAP
0000
0000
7F80
4080
4080
4080
4080
7F80
0C00
7F80
0000
0000
ENDCHAR
STARTCHAR char256
ENCODING 393
SWIDTH 900 0
DWIDTH 10 0
BBX 10 12 -1 -2
BITMAP
0000
0000
7B80
7B80
7800
0380
7B80
7800
7B80
7B80
0000
0000
ENDCHAR
STARTCHAR char256
ENCODING 394
SWIDTH 900 0
DWIDTH 10 0
BBX 10 12 -1 -2
BITMAP
0000
0000
7C00
7C00
7C00
7D80
7D80
0180
0F80
0F80
0000
0000
ENDCHAR
STARTCHAR char256
ENCODING 395
SWIDTH 900 0
DWIDTH 10 0
BBX 10 12 -1 -2
BITMAP
0000
0000
7F80
7F80
7F80
7F80
7F80
7F80
7F80
7F80
0000
0000
ENDCHAR
STARTCHAR char256
ENCODING 396
SWIDTH 900 0
DWIDTH 10 0
BBX 10 12 -1 -2
BITMAP
0000
0000
7780
7780
7780
7780
0000
6D80
6D80
6D80
0000
0000
ENDCHAR
STARTCHAR char256
ENCODING 397
SWIDTH 900 0
DWIDTH 10 0
BBX 10 12 -1 -2
BITMAP
0000
0000
6D80
6D80
0000
6D80
6D80
0000
6D80
6D80
0000
0000
ENDCHAR
STARTCHAR char144
ENCODING 398
SWIDTH 900 0
DWIDTH 10 0
BBX 10 12 -1 -2
BITMAP
0000
0000
1F80
1F80
1080
1080
1080
1080
7380
7380
0000
0000
ENDCHAR
STARTCHAR char319
ENCODING 399
SWIDTH 900 0
DWIDTH 10 0
BBX 10 12 -1 -2
BITMAP
0000
0000
6D80
4080
1E00
5E80
5E80
1E00
4080
6D80
0000
0000
ENDCHAR
STARTCHAR char308
ENCODING 400
SWIDTH 900 0
DWIDTH 10 0
BBX 10 12 -1 -2
BITMAP
0000
0000
1C00
1C00
1C00
1C00
7F00
3E00
1C00
0800
0000
0000
ENDCHAR
STARTCHAR char308
ENCODING 401
SWIDTH 900 0
DWIDTH 10 0
BBX 10 12 -1 -2
BITMAP
0000
0000
0800
1C00
3E00
7F00
1C00
1C00
1C00
1C00
0000
0000
ENDCHAR
STARTCHAR char256
ENCODING 402
SWIDTH 900 0
DWIDTH 10 0
BBX 10 12 -1 -2
BITMAP
0000
0000
3F00
7F80
7F80
7F80
7F80
3F00
0600
0C00
0000
0000
ENDCHAR
STARTCHAR char305
ENCODING 403
SWIDTH 900 0
DWIDTH 10 0
BBX 10 12 -1 -2
BITMAP
0000
0000
0000
7FC0
5F40
6EC0
75C0
6AC0
5F40
7FC0
0000
0000
ENDCHAR
STARTCHAR char278
ENCODING 404
SWIDTH 900 0
DWIDTH 10 0
BBX 10 12 -1 -2
BITMAP
0000
0000
0800
1900
7880
7A80
7A80
7880
1900
0800
0000
0000
ENDCHAR
STARTCHAR char340
ENCODING 405
SWIDTH 900 0
DWIDTH 10 0
BBX 10 12 -1 -2
BITMAP
0000
0000
1E00
3700
7780
7780
7080
7F80
3F00
1E00
0000
0000
ENDCHAR
STARTCHAR char293
ENCODING 406
SWIDTH 900 0
DWIDTH 10 0
BBX 10 12 -1 -2
BITMAP
0000
0000
0000
0000
0000
3800
3800
3800
0000
0000
0000
0000
ENDCHAR
STARTCHAR multiply
ENCODING 407
SWIDTH 900 0
DWIDTH 10 0
BBX 10 12 -1 -2
BITMAP
0000
0000
0000
0000
4400
2800
1000
2800
4400
0000
0000
0000
ENDCHAR
STARTCHAR Oslash
ENCODING 408
SWIDTH 900 0
DWIDTH 10 0
BBX 10 12 -1 -2
BITMAP
0000
0000
3A00
4400
4C00
5400
6400
4400
4400
3800
0000
0000
ENDCHAR
STARTCHAR Ugrave
ENCODING 409
SWIDTH 900 0
DWIDTH 10 0
BBX 10 12 -1 -2
BITMAP
0000
0000
7F80
7F80
0C00
0C00
7F80
6D80
6180
7F80
0000
0000
ENDCHAR
STARTCHAR uni2B80
ENCODING 410
SWIDTH 900 0
DWIDTH 10 0
BBX 10 12 -1 -2
BITMAP
4000
6000
7000
7800
7C00
7E00
7E00
7C00
7800
7000
6000
4000
ENDCHAR
STARTCHAR uni2B81
ENCODING 411
SWIDTH 900 0
DWIDTH 10 0
BBX 10 12 -1 -2
BITMAP
4000
2000
1000
0800
0400
0200
0200
0400
0800
1000
2000
4000
ENDCHAR
STARTCHAR uni2B82
ENCODING 412
SWIDTH 900 0
DWIDTH 10 0
BBX 10 12 -1 -2
BITMAP
0200
0600
0E00
1E00
3E00
7E00
7E00
3E00
1E00
0E00
0600
0200
ENDCHAR
STARTCHAR uni2B83
ENCODING 413
SWIDTH 900 0
DWIDTH 10 0
BBX 10 12 -1 -2
BITMAP
0200
0400
0800
1000
2000
4000
4000
2000
1000
0800
0400
0200
ENDCHAR
STARTCHAR char319
ENCODING 414
SWIDTH 900 0
DWIDTH 10 0
BBX 10 12 -1 -2
BITMAP
0000
0000
5500
0000
7F00
7F00
7F00
7F00
0000
5500
0000
0000
ENDCHAR
STARTCHAR char340
ENCODING 416
SWIDTH 900 0
DWIDTH 10 0
BBX 10 12 -1 -2
BITMAP
0000
0000
1E00
2100
4080
4080
5280
7380
3300
1200
0000
0000
ENDCHAR
STARTCHAR char278
ENCODING 417
SWIDTH 900 0
DWIDTH 10 0
BBX 10 12 -1 -2
BITMAP
0000
0000
0800
1900
7880
7A80
7A80
7880
1900
0800
0000
0000
ENDCHAR
STARTCHAR char278
ENCODING 418
SWIDTH 900 0
DWIDTH 10 0
BBX 10 12 -1 -2
BITMAP
0000
0000
0800
1800
7800
7A00
7A00
7800
1800
0800
0000
0000
ENDCHAR
STARTCHAR char278
ENCODING 419
SWIDTH 900 0
DWIDTH 10 0
BBX 10 12 -1 -2
BITMAP
0000
0000
0800
1800
7800
7800
7800
7800
1800
0800
0000
0000
ENDCHAR
ENDFONT
